<svg id="Layer_1" data-name="Layer 1" xmlns="http://www.w3.org/2000/svg" viewBox="0 0 82.43 72.17"><defs><style>.cls-1{fill:none;}.cls-2{fill:#fff;}</style></defs><path class="cls-1" d="M51.5,24.65V18.2H31.22v6.45H18.27V18.2H13.12V60.92H69.61V18.2H64.46v6.45ZM32.11,55.73H20.61V44.24h11.5Zm0-14.85H20.61V29.39h11.5Zm15,14.85H35.61V44.24h11.5Zm0-14.85H35.61V29.39h11.5Zm15,14.85H50.61V44.24h11.5Zm0-14.85H50.61V29.39h11.5Z"/><rect class="cls-1" x="38.61" y="32.39" width="5.49" height="5.49"/><rect class="cls-1" x="53.61" y="32.39" width="5.49" height="5.49"/><rect class="cls-1" x="53.61" y="47.24" width="5.49" height="5.49"/><rect class="cls-1" x="23.61" y="47.24" width="5.49" height="5.49"/><rect class="cls-1" x="38.61" y="47.24" width="5.49" height="5.49"/><rect class="cls-1" x="23.61" y="32.39" width="5.49" height="5.49"/><polygon class="cls-2" points="64.46 18.2 69.61 18.2 69.61 60.92 13.12 60.92 13.12 18.2 18.27 18.2 18.27 15.2 10.12 15.2 10.12 63.92 72.61 63.92 72.61 15.2 64.46 15.2 64.46 18.2"/><rect class="cls-2" x="31.22" y="15.2" width="20.28" height="3"/><path class="cls-2" d="M18.27,24.65h13V5.6H18.27v19Zm10-16V21.65H21.27V8.6Z"/><path class="cls-2" d="M51.5,24.65h13V5.6h-13v19Zm10-16V21.65h-7V8.6Z"/><path class="cls-2" d="M20.61,40.88h11.5V29.39H20.61Zm3-8.49h5.5v5.49h-5.5Z"/><path class="cls-2" d="M35.61,40.88h11.5V29.39H35.61Zm3-8.49h5.5v5.49h-5.5Z"/><path class="cls-2" d="M50.61,40.88h11.5V29.39H50.61Zm3-8.49h5.5v5.49h-5.5Z"/><path class="cls-2" d="M20.61,55.73h11.5V44.24H20.61Zm3-8.49h5.5v5.49h-5.5Z"/><path class="cls-2" d="M35.61,55.73h11.5V44.24H35.61Zm3-8.49h5.5v5.49h-5.5Z"/><path class="cls-2" d="M50.61,55.73h11.5V44.24H50.61Zm3-8.49h5.5v5.49h-5.5Z"/></svg>