<svg id="Layer_1" data-name="Layer 1" xmlns="http://www.w3.org/2000/svg" viewBox="0 0 83.23 79.15">
    <defs>
        <style>.cls-1{fill:none;}.cls-2{fill:#fff;}</style>
    </defs>
    <path class="cls-1"
          d="M24.42,28.79V23.14H12V65.86H68.49V23.14H56.06v5.65Zm-2.79,8.42h3.15v3.11l-.37,8.44H22l-.37-8.44ZM25,52.45l-1,1H22.42l-1-1v-1.4l1-1H24l1,1Zm35.7,1H32.09v-3h28.6Zm0-6.15H32.09v-3h28.6Zm0-6.14H32.09v-3h28.6Z"/>
    <polygon class="cls-2"
             points="22.42 50.06 21.42 51.05 21.42 52.45 22.42 53.44 23.99 53.44 24.99 52.45 24.99 51.05 23.99 50.06 22.42 50.06"/>
    <polygon class="cls-2" points="24.41 48.76 24.78 40.32 24.78 37.21 21.63 37.21 21.63 40.32 22 48.76 24.41 48.76"/>
    <polygon class="cls-2"
             points="56.06 23.14 68.49 23.14 68.49 65.86 12 65.86 12 23.14 24.42 23.14 24.42 20.14 9 20.14 9 68.86 71.49 68.86 71.49 20.14 56.06 20.14 56.06 23.14"/>
    <path class="cls-2"
          d="M24.42,28.79H56.06V15.22H48.32V13.77a8.08,8.08,0,1,0-16.15,0v1.45H24.42V28.79Zm10.75-15a5.08,5.08,0,1,1,10.15,0v4.45h7.74v7.57H27.42V18.22h7.75Z"/>
    <rect class="cls-2" x="32.09" y="38.2" width="28.6" height="3"/>
    <rect class="cls-2" x="32.09" y="44.34" width="28.6" height="3"/>
    <rect class="cls-2" x="32.09" y="50.49" width="28.6" height="3"/>
</svg>