<svg id="Layer_1" data-name="Layer 1" xmlns="http://www.w3.org/2000/svg" viewBox="0 0 82.21 75.1"><defs><style>.cls-1{fill:#7df4beff;}</style></defs><path class="cls-1" d="M60,28.82H29.84l-10.1,10.1V64.5l10.1,10.1H60L70.07,64.5V38.92Zm-31.76,11,4.08-4.08H57.53l4.08,4.08V63.55l-4.08,4.09H32.28L28.2,63.55Z"/><polygon class="cls-1" points="44.9 58.68 52.33 62.58 50.91 54.31 56.91 48.46 48.62 47.26 44.9 39.74 41.19 47.26 32.9 48.46 38.9 54.31 37.48 62.58 44.9 58.68"/><polygon class="cls-1" points="57.2 34 73.34 9.12 55.61 9.12 44.9 24.19 34.2 9.12 16.47 9.12 32.61 34 57.2 34"/></svg>