<svg id="Layer_1" data-name="Layer 1" xmlns="http://www.w3.org/2000/svg" viewBox="0 0 56.17 53.95"><defs><style>.cls-1{fill:#fff;fill-rule:evenodd;}</style></defs><path class="cls-1" d="M12.13,16.34a4.42,4.42,0,0,1,4.42-4.42h9.68a1.15,1.15,0,0,1,0,2.29H16.55a2.14,2.14,0,0,0-2.13,2.13V37a2.13,2.13,0,0,0,2.13,2.13H37.21A2.13,2.13,0,0,0,39.34,37V27.33a1.15,1.15,0,1,1,2.3,0V37a4.44,4.44,0,0,1-4.43,4.43H16.55A4.43,4.43,0,0,1,12.13,37Zm25.7-1.86a.9.9,0,0,0-1.27,0l-1.78,1.78,2.52,2.51L39.08,17a.91.91,0,0,0,0-1.28ZM35.68,20.4l-2.52-2.52-10.6,10.6a.81.81,0,0,0-.26.52L22,31.56h0l2.56-.33a.92.92,0,0,0,.52-.26Zm-.75-7.54a3.2,3.2,0,0,1,4.53,0L40.7,14.1a3.19,3.19,0,0,1,0,4.52l-14,14a3.19,3.19,0,0,1-1.85.91l-2.56.34a2.32,2.32,0,0,1-2.6-2.6L20,28.7a3.19,3.19,0,0,1,.91-1.84Z"/></svg>