<svg id="Layer_1" data-name="Layer 1" xmlns="http://www.w3.org/2000/svg" viewBox="0 0 74.14 73.76"><defs><style>.cls-1{fill:#5a2e25;}</style></defs><path class="cls-1" d="M40.61,7l.15,0a25.51,25.51,0,0,1,3.38.26,29.05,29.05,0,0,1,3.32.65,30.27,30.27,0,0,1,4.42,1.5,30.8,30.8,0,0,1,3.39,1.72,29.62,29.62,0,0,1,3.53,2.45A28.75,28.75,0,0,1,61.5,16a30.58,30.58,0,0,1,2.93,3.49,31.16,31.16,0,0,1,2,3.3,32,32,0,0,1,1.79,4.07,29.58,29.58,0,0,1,1.4,5.71,31.55,31.55,0,0,1,.07,8.08A29.63,29.63,0,0,1,68.56,46a29.19,29.19,0,0,1-3.49,7.34,29.84,29.84,0,0,1-2.41,3.18c-.53.6-1.07,1.19-1.64,1.74a29.91,29.91,0,0,1-4.18,3.43,28.77,28.77,0,0,1-3.64,2.12,30.23,30.23,0,0,1-3.54,1.45A29.27,29.27,0,0,1,45,66.4a28.15,28.15,0,0,1-4.2.39c-1,0-1.9,0-2.84-.06a27.78,27.78,0,0,1-3.86-.53,30.19,30.19,0,0,1-5-1.48,28.62,28.62,0,0,1-4.54-2.25,29,29,0,0,1-3.35-2.37A26.28,26.28,0,0,1,18.9,58a2.91,2.91,0,0,1-.69-3.17,3,3,0,0,1,5-1,25.32,25.32,0,0,0,3.55,2.91,22.39,22.39,0,0,0,2.41,1.42,22.71,22.71,0,0,0,2.73,1.18,24.18,24.18,0,0,0,4.95,1.21,25.07,25.07,0,0,0,4.33.18,23.76,23.76,0,0,0,8.17-1.86,24.79,24.79,0,0,0,2.73-1.36A24,24,0,0,0,59,51.39,22.83,22.83,0,0,0,61.1,48.2a23.75,23.75,0,0,0,2.81-12.5A22.59,22.59,0,0,0,63,30.22a23.5,23.5,0,0,0-2.36-5.47A23,23,0,0,0,57.9,21a24.5,24.5,0,0,0-4.47-3.91,22.85,22.85,0,0,0-5.11-2.62,25.45,25.45,0,0,0-4.69-1.21A26.46,26.46,0,0,0,39.28,13a21.72,21.72,0,0,0-3.32.34,22.68,22.68,0,0,0-4.51,1.25,23.1,23.1,0,0,0-4.85,2.54,22.75,22.75,0,0,0-3.1,2.52,25.28,25.28,0,0,0-1.93,2.08,23.45,23.45,0,0,0-4.7,9.35,23.32,23.32,0,0,0-.6,3.52c0,.3-.05.6-.07.9.08,0,.11-.06.15-.1a9.78,9.78,0,0,1,.93-.89,3,3,0,0,1,4.85,2.33,2.74,2.74,0,0,1-.71,2c-.66.74-1.39,1.42-2.09,2.12-1.33,1.34-2.67,2.67-4,4a3,3,0,0,1-4.13.22c-.3-.25-.56-.55-.84-.82s-.76-.75-1.13-1.13L8.12,42.1,7,41,5.86,39.84c-.28-.29-.57-.56-.85-.85a3.13,3.13,0,0,1-.83-1.71v-.8a.14.14,0,0,1,0-.06,3,3,0,0,1,1.51-2.17A3,3,0,0,1,9,34.48c.37.29.68.64,1,1,0,0,.07.12.13.1s0-.1,0-.16c0-.73.09-1.46.18-2.19a27.92,27.92,0,0,1,1-4.71,30.18,30.18,0,0,1,1.81-4.68A29.85,29.85,0,0,1,16.07,19a30.33,30.33,0,0,1,2.39-2.81,30.81,30.81,0,0,1,4.37-3.77A29.68,29.68,0,0,1,26.93,10,30.55,30.55,0,0,1,30.87,8.4a29.22,29.22,0,0,1,4.79-1.12A26,26,0,0,1,39.18,7l.17,0Z"/><path class="cls-1" d="M44.53,42.88c-2.55,0-5.09,0-7.63,0a2.73,2.73,0,0,1-1.81-.73,3,3,0,0,1-1-2.41V25a3,3,0,0,1,4.89-2.45,2.81,2.81,0,0,1,1.12,2.25c0,1.46,0,2.92,0,4.37v7.37c0,.33,0,.3.29.3H51.92a3,3,0,0,1,2.66,4.56A2.92,2.92,0,0,1,52,42.88Z"/></svg>