<svg viewBox="18.915260437375746 19.105044 51.77534791252485 48.02172000000001" xmlns="http://www.w3.org/2000/svg" data-name="Layer 1" id="Layer_1" style="max-height: 500px" width="51.77534791252485" height="48.02172000000001"><defs><style>.cls-1{fill:#fff;}</style></defs><path d="M43.4,66.3a23.12,23.12,0,1,1,7.33-45,1.73,1.73,0,0,1,1.09,2.19,1.71,1.71,0,0,1-2.18,1.09,19.93,19.93,0,0,0-6.24-1,19.66,19.66,0,1,0,17.81,28A1.73,1.73,0,1,1,64.34,53,23.22,23.22,0,0,1,43.4,66.3Z" class="cls-1"/><path d="M64.38,48.75a1.37,1.37,0,0,1-.34,0,1.72,1.72,0,0,1-1.35-2,19.86,19.86,0,0,0,.37-3.85,1.73,1.73,0,1,1,3.46,0,22.79,22.79,0,0,1-.45,4.52A1.72,1.72,0,0,1,64.38,48.75Z" class="cls-1"/><path d="M63.92,38.88a1.73,1.73,0,0,1-1.66-1.27,19.32,19.32,0,0,0-1.59-4,1.73,1.73,0,1,1,3-1.63,23.07,23.07,0,0,1,1.87,4.65,1.72,1.72,0,0,1-1.2,2.13A1.53,1.53,0,0,1,63.92,38.88Z" class="cls-1"/><path d="M58.76,30a1.73,1.73,0,0,1-1.24-.53,19.93,19.93,0,0,0-3.37-2.78,1.73,1.73,0,1,1,1.9-2.89,23.3,23.3,0,0,1,4,3.26A1.74,1.74,0,0,1,58.76,30Z" class="cls-1"/><path d="M40.61,54h-.22a2.6,2.6,0,0,1-1.8-1L31.31,44a2.59,2.59,0,0,1,4-3.25l5.57,6.93L53,36.94a2.59,2.59,0,0,1,3.44,3.88L42.33,53.34A2.57,2.57,0,0,1,40.61,54Z" class="cls-1"/></svg>