<svg viewBox="10.113451292246522 22.939872 71.27739562624255 42.3213" xmlns="http://www.w3.org/2000/svg"
     data-name="Layer 1" id="Layer_1" style="max-height: 500px" width="71.27739562624255" height="42.3213">
    <defs>
        <style>.cls-1{fill:#fff;}</style>
    </defs>
    <path d="M65.87,33.41A31.77,31.77,0,0,0,11.63,55.87v3.87a2.54,2.54,0,0,0,2.53,2.53H72.64a2.54,2.54,0,0,0,2.54-2.53V55.87a31.57,31.57,0,0,0-9.31-22.46Zm7.32,26.33a.55.55,0,0,1-.55.55H14.16a.55.55,0,0,1-.55-.54V55.87a29.79,29.79,0,0,1,59.58,0v3.87ZM62.05,37.23a.69.69,0,0,0-.13-.11,26.32,26.32,0,0,0-37,0,1.56,1.56,0,0,0-.21.21A26.29,26.29,0,0,0,17,55.87a1,1,0,0,0,1,1h9.11a1,1,0,0,0,1-1A15.29,15.29,0,0,1,46.72,41l-4.64,6.91A4.59,4.59,0,1,0,48,52.27a4.32,4.32,0,0,0-.26-1.49l2.93-7.9.14-.36a15.35,15.35,0,0,1,7.86,13.35,1,1,0,0,0,1,1h9.11a1,1,0,0,0,1-1,26.28,26.28,0,0,0-7.62-18.52l-.11-.12ZM31.93,43l-5.05-5a24.29,24.29,0,0,1,15.53-6.44v7.14A17.11,17.11,0,0,0,31.93,43ZM26.18,54.88H19a24.29,24.29,0,0,1,6.44-15.53l5.05,5a17.11,17.11,0,0,0-4.35,10.48ZM44.4,38.65V31.51A24.22,24.22,0,0,1,52,33.06L47.9,39.21a17.26,17.26,0,0,0-3.5-.56Zm.11,9.16,5-7.41-3.11,8.37A4.57,4.57,0,0,0,44.51,47.81ZM43.4,54.88A2.61,2.61,0,1,1,46,52.27,2.61,2.61,0,0,1,43.4,54.88ZM54,33.92a24.24,24.24,0,0,1,5.91,4l-5,5a17.23,17.23,0,0,0-3.37-2.35Zm6.62,21A17.32,17.32,0,0,0,56.29,44.4l5-5a24.29,24.29,0,0,1,6.44,15.52Z"
          class="cls-1"/>
</svg>